<svg width="45" height="50" viewBox="0 0 45 50" fill="none" xmlns="http://www.w3.org/2000/svg">
<path d="M43.9629 41.1719C40.2242 45.4614 35.0946 48.3235 29.4483 49.2704C23.8019 50.2174 17.9882 49.1906 12.9975 46.3651C8.00689 43.5396 4.1482 39.0901 2.07893 33.7749C0.00965608 28.4596 -0.142168 22.6074 1.64932 17.2154C3.44082 11.8234 7.06478 7.22526 11.9037 4.2044C16.7427 1.18353 22.4972 -0.0731308 28.1869 0.648537C33.8765 1.3702 39.1492 4.02555 43.1065 8.16213C47.0639 12.2987 37.0542 16.6113 37.4827 22.2849L34.0523 24.4223C33.8985 22.3857 33.038 20.4609 31.6174 18.976C30.1968 17.491 28.3041 16.5378 26.2616 16.2788C24.2192 16.0197 22.1535 16.4708 20.4164 17.5552C18.6793 18.6397 17.3784 20.2903 16.7353 22.2259C16.0922 24.1614 16.1467 26.2622 16.8895 28.1703C17.6324 30.0783 19.0175 31.6756 20.809 32.6899C22.6005 33.7041 24.6875 34.0727 26.7144 33.7328C28.7413 33.3929 30.5827 32.3654 31.9248 30.8256L43.9629 41.1719Z" fill="url(#paint0_linear_1601_55)"/>
<defs>
<linearGradient id="paint0_linear_1601_55" x1="31.8659" y1="1.3795" x2="16.6533" y2="48.082" gradientUnits="userSpaceOnUse">
<stop stop-color="#4AA58B"/>
<stop offset="1" stop-color="#1C3F35"/>
</linearGradient>
</defs>
</svg>
